<mxfile host="app.diagrams.net" modified="2024-02-07T05:29:54.872Z" agent="Mozilla/5.0 (Windows NT 10.0; Win64; x64) AppleWebKit/537.36 (KHTML, like Gecko) Chrome/121.0.0.0 Safari/537.36" etag="mKdYihxS9pldp5BXs301" version="23.1.1" type="device">
  <diagram id="C5RBs43oDa-KdzZeNtuy" name="Page-1">
    <mxGraphModel dx="1860" dy="773" grid="1" gridSize="10" guides="1" tooltips="1" connect="1" arrows="1" fold="1" page="1" pageScale="1" pageWidth="827" pageHeight="1169" math="0" shadow="0">
      <root>
        <mxCell id="WIyWlLk6GJQsqaUBKTNV-0" />
        <mxCell id="WIyWlLk6GJQsqaUBKTNV-1" parent="WIyWlLk6GJQsqaUBKTNV-0" />
        <mxCell id="-JGUL8WvWLox9T-vpzo2-57" style="edgeStyle=orthogonalEdgeStyle;rounded=0;orthogonalLoop=1;jettySize=auto;html=1;entryX=0.5;entryY=0;entryDx=0;entryDy=0;" edge="1" parent="WIyWlLk6GJQsqaUBKTNV-1" source="-JGUL8WvWLox9T-vpzo2-32" target="-JGUL8WvWLox9T-vpzo2-42">
          <mxGeometry relative="1" as="geometry">
            <Array as="points">
              <mxPoint x="741.25" y="360" />
              <mxPoint x="676.25" y="360" />
            </Array>
          </mxGeometry>
        </mxCell>
        <mxCell id="-JGUL8WvWLox9T-vpzo2-58" style="edgeStyle=orthogonalEdgeStyle;rounded=0;orthogonalLoop=1;jettySize=auto;html=1;entryX=0.5;entryY=0;entryDx=0;entryDy=0;" edge="1" parent="WIyWlLk6GJQsqaUBKTNV-1" source="-JGUL8WvWLox9T-vpzo2-32" target="-JGUL8WvWLox9T-vpzo2-44">
          <mxGeometry relative="1" as="geometry">
            <Array as="points">
              <mxPoint x="740.25" y="360" />
              <mxPoint x="802.25" y="360" />
            </Array>
          </mxGeometry>
        </mxCell>
        <mxCell id="-JGUL8WvWLox9T-vpzo2-59" style="edgeStyle=orthogonalEdgeStyle;rounded=0;orthogonalLoop=1;jettySize=auto;html=1;entryX=0.5;entryY=0;entryDx=0;entryDy=0;" edge="1" parent="WIyWlLk6GJQsqaUBKTNV-1" source="-JGUL8WvWLox9T-vpzo2-32" target="-JGUL8WvWLox9T-vpzo2-34">
          <mxGeometry relative="1" as="geometry" />
        </mxCell>
        <mxCell id="-JGUL8WvWLox9T-vpzo2-60" style="edgeStyle=orthogonalEdgeStyle;rounded=0;orthogonalLoop=1;jettySize=auto;html=1;entryX=0.5;entryY=0;entryDx=0;entryDy=0;" edge="1" parent="WIyWlLk6GJQsqaUBKTNV-1" source="-JGUL8WvWLox9T-vpzo2-32" target="-JGUL8WvWLox9T-vpzo2-46">
          <mxGeometry relative="1" as="geometry" />
        </mxCell>
        <mxCell id="-JGUL8WvWLox9T-vpzo2-32" value="Sensor Readings&lt;br&gt;(1. Soil Moisture Sensor)&lt;br&gt;(2. Temperature Sensor)" style="rounded=1;whiteSpace=wrap;html=1;fontSize=12;glass=0;strokeWidth=1;shadow=0;" vertex="1" parent="WIyWlLk6GJQsqaUBKTNV-1">
          <mxGeometry x="640.75" y="280" width="200" height="60" as="geometry" />
        </mxCell>
        <mxCell id="-JGUL8WvWLox9T-vpzo2-33" style="edgeStyle=none;curved=1;rounded=0;orthogonalLoop=1;jettySize=auto;html=1;exitX=0.5;exitY=1;exitDx=0;exitDy=0;entryX=0.5;entryY=0;entryDx=0;entryDy=0;fontSize=12;startSize=8;endSize=8;" edge="1" parent="WIyWlLk6GJQsqaUBKTNV-1" source="-JGUL8WvWLox9T-vpzo2-34" target="-JGUL8WvWLox9T-vpzo2-40">
          <mxGeometry relative="1" as="geometry" />
        </mxCell>
        <mxCell id="-JGUL8WvWLox9T-vpzo2-34" value="&lt;font style=&quot;font-size: 12px;&quot;&gt;Temp &amp;lt; Range&lt;br style=&quot;border-color: var(--border-color); background-color: rgb(255, 255, 255);&quot;&gt;&lt;span style=&quot;background-color: rgb(255, 255, 255);&quot;&gt;Moist &amp;lt; Range&lt;/span&gt;&lt;/font&gt;" style="rhombus;whiteSpace=wrap;html=1;shadow=0;fontFamily=Helvetica;fontSize=12;align=center;strokeWidth=1;spacing=6;spacingTop=-4;" vertex="1" parent="WIyWlLk6GJQsqaUBKTNV-1">
          <mxGeometry x="481.5" y="390" width="120" height="120" as="geometry" />
        </mxCell>
        <mxCell id="-JGUL8WvWLox9T-vpzo2-35" style="edgeStyle=none;curved=1;rounded=0;orthogonalLoop=1;jettySize=auto;html=1;exitX=0.5;exitY=1;exitDx=0;exitDy=0;entryX=0.5;entryY=0;entryDx=0;entryDy=0;fontSize=12;startSize=8;endSize=8;" edge="1" parent="WIyWlLk6GJQsqaUBKTNV-1" source="-JGUL8WvWLox9T-vpzo2-36" target="-JGUL8WvWLox9T-vpzo2-38">
          <mxGeometry relative="1" as="geometry" />
        </mxCell>
        <mxCell id="-JGUL8WvWLox9T-vpzo2-69" value="1 Hour" style="edgeLabel;html=1;align=center;verticalAlign=middle;resizable=0;points=[];" vertex="1" connectable="0" parent="-JGUL8WvWLox9T-vpzo2-35">
          <mxGeometry x="-0.1771" relative="1" as="geometry">
            <mxPoint as="offset" />
          </mxGeometry>
        </mxCell>
        <mxCell id="-JGUL8WvWLox9T-vpzo2-36" value="Timer" style="rounded=1;whiteSpace=wrap;html=1;fontSize=12;glass=0;strokeWidth=1;shadow=0;" vertex="1" parent="WIyWlLk6GJQsqaUBKTNV-1">
          <mxGeometry x="818.25" y="60" width="120" height="50" as="geometry" />
        </mxCell>
        <mxCell id="-JGUL8WvWLox9T-vpzo2-62" style="edgeStyle=orthogonalEdgeStyle;rounded=0;orthogonalLoop=1;jettySize=auto;html=1;entryX=0.5;entryY=0;entryDx=0;entryDy=0;" edge="1" parent="WIyWlLk6GJQsqaUBKTNV-1" source="-JGUL8WvWLox9T-vpzo2-38" target="-JGUL8WvWLox9T-vpzo2-32">
          <mxGeometry relative="1" as="geometry">
            <Array as="points">
              <mxPoint x="878.25" y="250" />
              <mxPoint x="741.25" y="250" />
            </Array>
          </mxGeometry>
        </mxCell>
        <mxCell id="-JGUL8WvWLox9T-vpzo2-66" style="edgeStyle=orthogonalEdgeStyle;rounded=0;orthogonalLoop=1;jettySize=auto;html=1;" edge="1" parent="WIyWlLk6GJQsqaUBKTNV-1" source="-JGUL8WvWLox9T-vpzo2-38" target="-JGUL8WvWLox9T-vpzo2-55">
          <mxGeometry relative="1" as="geometry">
            <Array as="points">
              <mxPoint x="878.25" y="250" />
              <mxPoint x="1048.25" y="250" />
            </Array>
          </mxGeometry>
        </mxCell>
        <mxCell id="-JGUL8WvWLox9T-vpzo2-70" value="ISR" style="edgeLabel;html=1;align=center;verticalAlign=middle;resizable=0;points=[];" vertex="1" connectable="0" parent="-JGUL8WvWLox9T-vpzo2-66">
          <mxGeometry x="-0.7969" relative="1" as="geometry">
            <mxPoint as="offset" />
          </mxGeometry>
        </mxCell>
        <mxCell id="-JGUL8WvWLox9T-vpzo2-38" value="Interrupt" style="rounded=1;whiteSpace=wrap;html=1;fontSize=12;glass=0;strokeWidth=1;shadow=0;" vertex="1" parent="WIyWlLk6GJQsqaUBKTNV-1">
          <mxGeometry x="818.25" y="160" width="120" height="50" as="geometry" />
        </mxCell>
        <mxCell id="-JGUL8WvWLox9T-vpzo2-74" style="edgeStyle=orthogonalEdgeStyle;rounded=0;orthogonalLoop=1;jettySize=auto;html=1;entryX=0;entryY=0.5;entryDx=0;entryDy=0;" edge="1" parent="WIyWlLk6GJQsqaUBKTNV-1" source="-JGUL8WvWLox9T-vpzo2-40" target="-JGUL8WvWLox9T-vpzo2-54">
          <mxGeometry relative="1" as="geometry">
            <Array as="points">
              <mxPoint x="548.25" y="695" />
            </Array>
          </mxGeometry>
        </mxCell>
        <mxCell id="-JGUL8WvWLox9T-vpzo2-40" value="&lt;font style=&quot;font-size: 12px;&quot;&gt;Relay ON &lt;br&gt;(5 sec)&lt;br&gt;(40% Water supply)&amp;nbsp;&amp;nbsp;&lt;br&gt;&lt;/font&gt;" style="shape=parallelogram;perimeter=parallelogramPerimeter;whiteSpace=wrap;html=1;fixedSize=1;fontSize=16;" vertex="1" parent="WIyWlLk6GJQsqaUBKTNV-1">
          <mxGeometry x="470" y="540" width="143.25" height="60" as="geometry" />
        </mxCell>
        <mxCell id="-JGUL8WvWLox9T-vpzo2-41" style="edgeStyle=none;curved=1;rounded=0;orthogonalLoop=1;jettySize=auto;html=1;exitX=0.5;exitY=1;exitDx=0;exitDy=0;entryX=0.5;entryY=0;entryDx=0;entryDy=0;fontSize=12;startSize=8;endSize=8;" edge="1" parent="WIyWlLk6GJQsqaUBKTNV-1" source="-JGUL8WvWLox9T-vpzo2-42" target="-JGUL8WvWLox9T-vpzo2-48">
          <mxGeometry relative="1" as="geometry" />
        </mxCell>
        <mxCell id="-JGUL8WvWLox9T-vpzo2-42" value="&lt;font style=&quot;font-size: 12px;&quot;&gt;Temp &amp;gt; Range&lt;br style=&quot;border-color: var(--border-color); background-color: rgb(255, 255, 255);&quot;&gt;&lt;span style=&quot;background-color: rgb(255, 255, 255);&quot;&gt;Moist &amp;lt; Range&lt;/span&gt;&lt;/font&gt;" style="rhombus;whiteSpace=wrap;html=1;shadow=0;fontFamily=Helvetica;fontSize=12;align=center;strokeWidth=1;spacing=6;spacingTop=-4;" vertex="1" parent="WIyWlLk6GJQsqaUBKTNV-1">
          <mxGeometry x="616.5" y="390" width="120" height="120" as="geometry" />
        </mxCell>
        <mxCell id="-JGUL8WvWLox9T-vpzo2-43" style="edgeStyle=none;curved=1;rounded=0;orthogonalLoop=1;jettySize=auto;html=1;exitX=0.5;exitY=1;exitDx=0;exitDy=0;fontSize=12;startSize=8;endSize=8;" edge="1" parent="WIyWlLk6GJQsqaUBKTNV-1" source="-JGUL8WvWLox9T-vpzo2-44" target="-JGUL8WvWLox9T-vpzo2-50">
          <mxGeometry relative="1" as="geometry" />
        </mxCell>
        <mxCell id="-JGUL8WvWLox9T-vpzo2-44" value="&lt;font style=&quot;font-size: 12px;&quot;&gt;Temp &amp;lt; Range&lt;br style=&quot;border-color: var(--border-color); background-color: rgb(255, 255, 255);&quot;&gt;&lt;span style=&quot;background-color: rgb(255, 255, 255);&quot;&gt;Moist &amp;gt; Range&lt;/span&gt;&lt;/font&gt;" style="rhombus;whiteSpace=wrap;html=1;shadow=0;fontFamily=Helvetica;fontSize=12;align=center;strokeWidth=1;spacing=6;spacingTop=-4;" vertex="1" parent="WIyWlLk6GJQsqaUBKTNV-1">
          <mxGeometry x="742.5" y="390" width="120" height="120" as="geometry" />
        </mxCell>
        <mxCell id="-JGUL8WvWLox9T-vpzo2-45" style="edgeStyle=none;curved=1;rounded=0;orthogonalLoop=1;jettySize=auto;html=1;exitX=0.5;exitY=1;exitDx=0;exitDy=0;entryX=0.5;entryY=0;entryDx=0;entryDy=0;fontSize=12;startSize=8;endSize=8;" edge="1" parent="WIyWlLk6GJQsqaUBKTNV-1" source="-JGUL8WvWLox9T-vpzo2-46" target="-JGUL8WvWLox9T-vpzo2-52">
          <mxGeometry relative="1" as="geometry" />
        </mxCell>
        <mxCell id="-JGUL8WvWLox9T-vpzo2-46" value="&lt;font style=&quot;font-size: 12px;&quot;&gt;Temp &amp;gt; Range&lt;br style=&quot;border-color: var(--border-color); background-color: rgb(255, 255, 255);&quot;&gt;&lt;span style=&quot;background-color: rgb(255, 255, 255);&quot;&gt;Moist &amp;gt; Range&lt;/span&gt;&lt;/font&gt;" style="rhombus;whiteSpace=wrap;html=1;shadow=0;fontFamily=Helvetica;fontSize=12;align=center;strokeWidth=1;spacing=6;spacingTop=-4;" vertex="1" parent="WIyWlLk6GJQsqaUBKTNV-1">
          <mxGeometry x="868.5" y="390" width="120" height="120" as="geometry" />
        </mxCell>
        <mxCell id="-JGUL8WvWLox9T-vpzo2-47" value="" style="edgeStyle=orthogonalEdgeStyle;rounded=0;orthogonalLoop=1;jettySize=auto;html=1;" edge="1" parent="WIyWlLk6GJQsqaUBKTNV-1" source="-JGUL8WvWLox9T-vpzo2-48" target="-JGUL8WvWLox9T-vpzo2-54">
          <mxGeometry relative="1" as="geometry" />
        </mxCell>
        <mxCell id="-JGUL8WvWLox9T-vpzo2-48" value="&lt;font style=&quot;font-size: 12px;&quot;&gt;&lt;span style=&quot;border-color: var(--border-color); background-color: rgb(255, 255, 255);&quot;&gt;Relay ON&lt;br&gt;(10 sec)&lt;br&gt;(80% Water supply)&lt;br&gt;&lt;/span&gt;&lt;/font&gt;" style="shape=parallelogram;perimeter=parallelogramPerimeter;whiteSpace=wrap;html=1;fixedSize=1;fontSize=16;" vertex="1" parent="WIyWlLk6GJQsqaUBKTNV-1">
          <mxGeometry x="602.25" y="540" width="147" height="60" as="geometry" />
        </mxCell>
        <mxCell id="-JGUL8WvWLox9T-vpzo2-49" value="" style="edgeStyle=orthogonalEdgeStyle;rounded=0;orthogonalLoop=1;jettySize=auto;html=1;" edge="1" parent="WIyWlLk6GJQsqaUBKTNV-1" source="-JGUL8WvWLox9T-vpzo2-50" target="-JGUL8WvWLox9T-vpzo2-54">
          <mxGeometry relative="1" as="geometry" />
        </mxCell>
        <mxCell id="-JGUL8WvWLox9T-vpzo2-50" value="&lt;font style=&quot;font-size: 12px;&quot;&gt;Relay OFF&lt;br&gt;(No water Supply)&lt;br&gt;&lt;/font&gt;" style="shape=parallelogram;perimeter=parallelogramPerimeter;whiteSpace=wrap;html=1;fixedSize=1;fontSize=16;" vertex="1" parent="WIyWlLk6GJQsqaUBKTNV-1">
          <mxGeometry x="736.5" y="540" width="135" height="60" as="geometry" />
        </mxCell>
        <mxCell id="-JGUL8WvWLox9T-vpzo2-73" style="edgeStyle=orthogonalEdgeStyle;rounded=0;orthogonalLoop=1;jettySize=auto;html=1;entryX=1;entryY=0.5;entryDx=0;entryDy=0;" edge="1" parent="WIyWlLk6GJQsqaUBKTNV-1" source="-JGUL8WvWLox9T-vpzo2-52" target="-JGUL8WvWLox9T-vpzo2-54">
          <mxGeometry relative="1" as="geometry">
            <Array as="points">
              <mxPoint x="918.25" y="695" />
            </Array>
          </mxGeometry>
        </mxCell>
        <mxCell id="-JGUL8WvWLox9T-vpzo2-52" value="&lt;font style=&quot;font-size: 12px;&quot;&gt;Relay OFF&lt;br style=&quot;border-color: var(--border-color);&quot;&gt;(No water Supply)&lt;/font&gt;&lt;span style=&quot;font-size: 12px;&quot;&gt;&lt;br&gt;&lt;/span&gt;" style="shape=parallelogram;perimeter=parallelogramPerimeter;whiteSpace=wrap;html=1;fixedSize=1;fontSize=16;" vertex="1" parent="WIyWlLk6GJQsqaUBKTNV-1">
          <mxGeometry x="861.5" y="540" width="135" height="60" as="geometry" />
        </mxCell>
        <mxCell id="-JGUL8WvWLox9T-vpzo2-68" style="edgeStyle=orthogonalEdgeStyle;rounded=0;orthogonalLoop=1;jettySize=auto;html=1;entryX=1;entryY=0.5;entryDx=0;entryDy=0;" edge="1" parent="WIyWlLk6GJQsqaUBKTNV-1" source="-JGUL8WvWLox9T-vpzo2-54" target="-JGUL8WvWLox9T-vpzo2-36">
          <mxGeometry relative="1" as="geometry">
            <Array as="points">
              <mxPoint x="738.25" y="770" />
              <mxPoint x="1188.25" y="770" />
              <mxPoint x="1188.25" y="85" />
            </Array>
          </mxGeometry>
        </mxCell>
        <mxCell id="-JGUL8WvWLox9T-vpzo2-54" value="LCD(Display the current condition)&lt;br&gt;" style="rounded=1;whiteSpace=wrap;html=1;" vertex="1" parent="WIyWlLk6GJQsqaUBKTNV-1">
          <mxGeometry x="640.75" y="650" width="195" height="90" as="geometry" />
        </mxCell>
        <mxCell id="-JGUL8WvWLox9T-vpzo2-55" value="Sensor Readings&lt;br&gt;(1. Water Level Sensor)" style="rounded=1;whiteSpace=wrap;html=1;" vertex="1" parent="WIyWlLk6GJQsqaUBKTNV-1">
          <mxGeometry x="958.25" y="280" width="180" height="60" as="geometry" />
        </mxCell>
        <mxCell id="-JGUL8WvWLox9T-vpzo2-72" style="edgeStyle=orthogonalEdgeStyle;rounded=0;orthogonalLoop=1;jettySize=auto;html=1;entryX=0.996;entryY=0.84;entryDx=0;entryDy=0;entryPerimeter=0;" edge="1" parent="WIyWlLk6GJQsqaUBKTNV-1" source="-JGUL8WvWLox9T-vpzo2-55" target="-JGUL8WvWLox9T-vpzo2-54">
          <mxGeometry relative="1" as="geometry">
            <Array as="points">
              <mxPoint x="1048.25" y="726" />
            </Array>
          </mxGeometry>
        </mxCell>
      </root>
    </mxGraphModel>
  </diagram>
</mxfile>
